<?xml version="1.0" standalone="no"?>
<!DOCTYPE svg PUBLIC "-//W3C//DTD SVG 20010904//EN"
 "http://www.w3.org/TR/2001/REC-SVG-20010904/DTD/svg10.dtd">
<svg version="1.0" xmlns="http://www.w3.org/2000/svg"
 width="300.000000pt" height="136.000000pt" viewBox="0 0 300.000000 136.000000"
 preserveAspectRatio="xMidYMid meet">
<metadata>
Created by potrace 1.10, written by Peter Selinger 2001-2011
</metadata>
<g transform="translate(0.000000,136.000000) scale(0.100000,-0.100000)"
fill="#F9A826" stroke="none">
<path d="M1164 1100 c-158 -56 -261 -179 -282 -339 -17 -124 23 -238 114 -327
68 -67 141 -103 227 -111 37 -3 70 -10 73 -14 10 -17 80 -8 147 19 60 24 185
114 186 135 2 16 -22 5 -72 -36 -69 -56 -159 -96 -222 -97 -131 -3 -222 30
-313 113 -217 201 -111 574 183 642 121 29 276 -16 365 -105 47 -47 63 -47 30
1 -30 41 -130 105 -194 124 -67 20 -179 18 -242 -5z"/>
<path d="M1152 823 c2 -28 -3 -43 -19 -60 -28 -27 -29 -47 -3 -73 13 -13 20
-33 20 -60 0 -33 3 -40 19 -40 16 0 20 8 23 41 2 33 8 44 26 50 19 7 24 4 36
-26 28 -67 106 -114 106 -64 0 12 -8 23 -19 26 -10 3 -30 26 -44 51 l-25 47
20 28 c11 15 26 48 34 72 13 45 13 45 -11 45 -14 0 -25 -5 -25 -12 0 -6 -9
-31 -21 -55 l-21 -43 -29 15 c-25 13 -29 21 -29 55 0 34 -3 40 -21 40 -17 0
-20 -5 -17 -37z m56 -100 c2 -8 -6 -13 -22 -13 -26 0 -40 12 -29 24 11 11 46
2 51 -11z m47 -3 c-3 -5 -13 -10 -21 -10 -8 0 -12 5 -9 10 3 6 13 10 21 10 8
0 12 -4 9 -10z"/>
<path d="M1425 725 c0 -133 0 -135 23 -135 22 0 22 2 22 135 0 133 0 135 -22
135 -23 0 -23 -2 -23 -135z"/>
<path d="M1560 820 c0 -27 -5 -43 -15 -46 -8 -4 -15 -18 -15 -34 0 -16 7 -35
15 -44 9 -9 15 -33 15 -60 0 -39 3 -46 20 -46 17 0 20 7 20 45 0 38 3 45 20
45 32 0 23 14 -20 32 -22 9 -40 21 -40 27 0 18 28 12 43 -9 8 -11 16 -17 20
-14 3 3 15 3 27 -1 20 -6 20 -8 5 -25 -13 -14 -14 -23 -6 -38 15 -27 79 -82
96 -82 24 0 18 44 -7 55 -12 6 -30 22 -41 36 l-19 26 31 31 c68 67 13 142
-105 142 l-44 0 0 -40z m113 -14 c21 -16 22 -49 2 -66 -12 -10 -20 -7 -45 18
-38 39 -39 62 -2 62 15 0 35 -7 45 -14z"/>
<path d="M1882 802 c-12 -32 -22 -63 -22 -70 0 -15 -26 -16 -35 -2 -9 15 -25
2 -25 -21 0 -29 25 -34 49 -10 20 20 41 28 41 15 0 -9 -28 -34 -39 -34 -9 0
-51 -70 -51 -85 0 -3 11 -5 24 -5 18 0 27 9 40 44 15 39 21 44 54 48 52 7 61
1 83 -48 15 -35 23 -44 43 -44 24 0 24 1 11 28 -7 15 -33 75 -57 134 -39 97
-46 108 -68 108 -21 0 -28 -9 -48 -58z m53 29 c3 -5 1 -12 -5 -16 -5 -3 -10 1
-10 9 0 18 6 21 15 7z m20 -71 c10 -22 21 -40 25 -40 5 0 11 -7 14 -16 4 -11
-1 -10 -20 5 -19 15 -34 19 -52 14 -22 -5 -24 -4 -17 13 4 10 10 29 12 42 8
32 18 27 38 -18z"/>
</g>
</svg>
